<svg height="24" viewBox="0 0 24 24" width="24" xmlns="http://www.w3.org/2000/svg"><path d="m18 4h1c1.1045695 0 2 .8954305 2 2v15c0 1.1045695-.8954305 2-2 2h-14c-1.1045695 0-2-.8954305-2-2v-15c0-1.1045695.8954305-2 2-2h1c0-1.1045695.8954305-2 2-2h.99592076c.75227907-.63702537 1.84321654-1 3.00407924-1s2.2518002.36297463 3.0040792 1h.9959208c1.1045695 0 2 .8954305 2 2zm-11.73243561 2h-1.26756439v15h14v-15h-1.2675644c-.3458094.59780137-.9921532 1-1.7324356 1h-8c-.74028236 0-1.38662619-.40219863-1.73243561-1zm1.73243561 10v-2h6v2zm0-4v-2h8v2zm2.1566481-8.34462251-.29903006.34462251h-.45627145-1.40134659v1h8v-1h-1.857618l-.2990301-.34462251c-.3285446-.37863708-1.0327648-.65537749-1.8433519-.65537749s-1.5148073.27674041-1.8433519.65537749z" fill-rule="evenodd"/></svg>