<svg clip-rule="evenodd" fill-rule="evenodd" stroke-linejoin="round" stroke-miterlimit="2" viewBox="0 0 24 24" xmlns="http://www.w3.org/2000/svg"><path d="m16.476 3c.369 0 .709.197.887.514.9 1.595 3.633 6.445 4.509 8.001.075.131.118.276.126.423.012.187-.029.377-.126.547-.876 1.556-3.609 6.406-4.509 8-.178.318-.518.515-.887.515h-8.951c-.369 0-.709-.197-.887-.515-.899-1.594-3.634-6.444-4.51-8-.085-.151-.128-.318-.128-.485s.043-.334.128-.485c.876-1.556 3.611-6.406 4.51-8.001.178-.317.518-.514.887-.514z" fill-rule="nonzero"/></svg>