<svg enable-background="new 0 0 512 512" viewBox="0 0 512 512" xmlns="http://www.w3.org/2000/svg"><path d="m162.9 418.9c0-8.6-2.1-16.5-6.4-23.6h176.2c-4.3 7.2-6.4 15-6.4 23.6 0 25.8 20.8 46.5 46.5 46.5 25.8 0 46.5-20.8 46.5-46.5 0-8.6-2.1-16.5-6.4-23.6h29.4c12.9 0 23.6-10.7 23.6-23.6v-139c0-12.9-10.7-23.6-23.6-23.6h-395.4c-12.9 0-23.6 10.7-23.6 23.6v139.6c0 12.9 10.7 23.6 23.6 23.6h30.1c-4.3 7.2-6.4 15-6.4 23.6 0 25.8 20.8 46.5 46.5 46.5 25-.5 45.8-22 45.8-47.1zm186.2-163.3h70.2v70.2h-70.2zm-139.6 0h70.2v70.2h-70.2zm-139.7 0h70.2v70.2h-70.2z"/><path d="m23.3 465.5h465.5v46.5h-465.5z"/><path d="m395.6 139.6h-111l-30.7-46.5 30.7-46.6h41.6v-46.5h-139.7v46.5h56.6l-31.5 46.6 31.5 46.5h-126.7v46.6h279.2z"/></svg>