<?xml version="1.0" encoding="utf-8"?>
<!-- Generator: Adobe Illustrator 19.0.0, SVG Export Plug-In . SVG Version: 6.00 Build 0)  -->
<svg version="1.1" id="Layer_1" xmlns="http://www.w3.org/2000/svg" xmlns:xlink="http://www.w3.org/1999/xlink" x="0px" y="0px"
	 viewBox="0 0 512 512" style="enable-background:new 0 0 512 512;" xml:space="preserve">
<g id="XMLID_1_">
	<path id="XMLID_7_" d="M162.9,418.9c0-8.6-2.1-16.5-6.4-23.6h176.2c-4.3,7.2-6.4,15-6.4,23.6c0,25.8,20.8,46.5,46.5,46.5
		c25.8,0,46.5-20.8,46.5-46.5c0-8.6-2.1-16.5-6.4-23.6h29.4c12.9,0,23.6-10.7,23.6-23.6V232.7c0-12.9-10.7-23.6-23.6-23.6H46.9
		c-12.9,0-23.6,10.7-23.6,23.6v139.6c0,12.9,10.7,23.6,23.6,23.6H77c-4.3,7.2-6.4,15-6.4,23.6c0,25.8,20.8,46.5,46.5,46.5
		C142.1,465.5,162.9,444,162.9,418.9z M349.1,255.6h70.2v70.2h-70.2V255.6z M209.5,255.6h70.2v70.2h-70.2V255.6z M69.8,255.6H140
		v70.2H69.8V255.6z"/>
	<rect id="XMLID_8_" x="23.3" y="465.5" width="465.5" height="46.5"/>
	<polygon id="XMLID_9_" points="395.6,139.6 284.6,139.6 253.9,93.1 284.6,46.5 326.2,46.5 326.2,0 186.5,0 186.5,46.5 243.1,46.5 
		211.6,93.1 243.1,139.6 116.4,139.6 116.4,186.2 395.6,186.2 	"/>
</g>
</svg>
